<?xml version="1.0" encoding="UTF-8" standalone="no"?>
<svg
   xmlns:dc="http://purl.org/dc/elements/1.1/"
   xmlns:cc="http://creativecommons.org/ns#"
   xmlns:rdf="http://www.w3.org/1999/02/22-rdf-syntax-ns#"
   xmlns:svg="http://www.w3.org/2000/svg"
   xmlns="http://www.w3.org/2000/svg"
   xmlns:sodipodi="http://sodipodi.sourceforge.net/DTD/sodipodi-0.dtd"
   xmlns:inkscape="http://www.inkscape.org/namespaces/inkscape"
   version="1.1"
   id="svg10"
   width="19.999901"
   height="19.991198"
   viewBox="0 0 19.999901 19.991198"
   sodipodi:docname="buglog-icon.svg"
   inkscape:version="1.0.1 (c497b03c, 2020-09-10)">
  <metadata
     id="metadata16">
    <rdf:RDF>
      <cc:Work
         rdf:about="">
        <dc:format>image/svg+xml</dc:format>
        <dc:type
           rdf:resource="http://purl.org/dc/dcmitype/StillImage" />
        <dc:title />
      </cc:Work>
    </rdf:RDF>
  </metadata>
  <defs
     id="defs14" />
  <sodipodi:namedview
     pagecolor="#ffffff"
     bordercolor="#666666"
     borderopacity="1"
     objecttolerance="10"
     gridtolerance="10"
     guidetolerance="10"
     inkscape:pageopacity="0"
     inkscape:pageshadow="2"
     inkscape:window-width="1355"
     inkscape:window-height="641"
     id="namedview12"
     showgrid="false"
     inkscape:zoom="10.829766"
     inkscape:cx="9.99995"
     inkscape:cy="9.9955991"
     inkscape:window-x="0"
     inkscape:window-y="23"
     inkscape:window-maximized="0"
     inkscape:current-layer="g18"
     inkscape:document-rotation="0" />
  <g
     inkscape:groupmode="layer"
     inkscape:label="Image"
     id="g18"
     transform="translate(-631.12079,14.513704)">
    <path
       style="fill:#2b2c34;stroke-width:0.0390625;fill-opacity:1"
       d="m 631.42047,5.4000078 c -0.15903,-0.083907 -0.29724,-0.3180175 -0.29885,-0.5062046 -10e-4,-0.1223375 0.69984,-2.223653 0.82146,-2.4628147 0.2889,-0.5680878 0.75795,-1.0379323 1.30311,-1.3053085 0.56177,-0.27551832 0.70023,-0.30141168 1.71696,-0.32109098 l 0.89317,-0.0172875 -0.0236,-0.14271366 c -0.013,-0.0784926 -0.0238,-0.60413941 -0.024,-1.16810421 l -4.3e-4,-1.02539055 h -2.09704 c -2.0376,0 -2.10176,-0.00228 -2.26328,-0.080473 -0.18137,-0.087802 -0.32718,-0.3205359 -0.32718,-0.5222445 0,-0.1644652 0.14716,-0.3934117 0.31266,-0.4864273 0.14489,-0.081432 0.18035,-0.08273 2.26102,-0.08273 h 2.11382 v -1.1718749 -1.1718749 h -0.73875 c -0.80625,0 -1.16867,-0.048286 -1.56551,-0.2085789 -0.67865,-0.2741179 -1.23145,-0.7796894 -1.56092,-1.4275667 -0.12162,-0.2391617 -0.82251,-2.3404771 -0.82146,-2.4628146 0.002,-0.1943805 0.13966,-0.4226781 0.30715,-0.5081227 0.19863,-0.1013331 0.35624,-0.1018371 0.5524,-0.00177 0.2022,0.103157 0.23683,0.1779199 0.62401,1.3471304 0.17786,0.5371093 0.36665,1.0629831 0.41953,1.1686081 0.12605,0.2517984 0.45184,0.5738632 0.7165,0.7083199 0.36022,0.182998 0.54209,0.2119503 1.33463,0.2124519 l 0.73242,4.648e-4 v -0.369171 c 0,-0.4716605 0.0528,-0.718155 0.22469,-1.0482288 0.1598,-0.3069211 0.42892,-0.5680133 0.75531,-0.7327719 l 0.22139,-0.1117605 0.0498,-0.2655179 c 0.17806,-0.9493328 0.72695,-1.8449246 1.52197,-2.4833046 l 0.17551,-0.140931 -0.10453,-0.109704 c -0.18452,-0.193651 -0.3769,-0.558695 -0.4395,-0.833951 -0.0434,-0.190884 -0.0609,-0.477044 -0.0609,-0.996896 0,-0.830954 0.0335,-0.94937 0.31266,-1.106284 0.18634,-0.10473 0.35969,-0.105024 0.54491,-9.23e-4 0.27031,0.151919 0.29232,0.229845 0.3143,1.112623 0.0191,0.768531 0.0216,0.787422 0.12347,0.94116 0.18645,0.281433 0.21415,0.286285 1.63435,0.286285 1.42019,0 1.4479,-0.0049 1.63434,-0.286282 0.10185,-0.153737 0.10433,-0.172626 0.12347,-0.941161 0.022,-0.88278 0.044,-0.960706 0.3143,-1.112625 0.18648,-0.10481 0.35875,-0.10371 0.54952,0.0035 0.2693,0.151354 0.30805,0.292328 0.30805,1.120478 0,0.504655 -0.0177,0.790447 -0.0609,0.980115 -0.0626,0.275077 -0.25453,0.639439 -0.43978,0.834728 l -0.10479,0.110482 0.0976,0.07816 c 0.88042,0.704665 1.41462,1.5581732 1.60504,2.5644278 l 0.0466,0.2463644 0.23379,0.1180203 c 0.32051,0.1617898 0.58068,0.416975 0.74299,0.7287527 0.17029,0.3271019 0.22312,0.5745843 0.22312,1.0452327 v 0.3691711 l 0.77148,-4.649e-4 c 0.83422,-5e-4 1.00999,-0.027686 1.37368,-0.2124519 0.26467,-0.1344566 0.59046,-0.4565214 0.71651,-0.7083199 0.0529,-0.105625 0.24166,-0.6314987 0.41953,-1.1686081 0.38718,-1.1692104 0.42181,-1.2439733 0.62401,-1.3471303 0.19616,-0.1000711 0.35377,-0.099567 0.5524,0.00177 0.16749,0.085445 0.30549,0.3137422 0.30715,0.5081226 10e-4,0.1210828 -0.69867,2.2207557 -0.82072,2.4628147 -0.27876,0.5528476 -0.76853,1.0427862 -1.30584,1.3062948 -0.56192,0.2755734 -0.69731,0.3006218 -1.73,0.3200628 l -0.9082,0.017098 v 1.1682198 1.1682202 h 2.14999 c 2.06072,0 2.15624,0.00319 2.30057,0.076818 0.15956,0.081403 0.31506,0.3326844 0.31506,0.5091207 0,0.1862339 -0.15162,0.4204784 -0.32718,0.5054644 -0.16164,0.078248 -0.2253,0.080473 -2.30234,0.080473 h -2.1361 l -4.3e-4,1.02539055 c -3.9e-4,0.5639648 -0.0111,1.08966281 -0.0241,1.16821749 l -0.0236,0.14282694 0.93225,0.0170281 c 1.05985,0.0193594 1.18886,0.0429519 1.75604,0.32112382 0.54516,0.2673762 1.01422,0.7372207 1.30311,1.3053085 0.11875,0.2335137 0.82232,2.3384768 0.82232,2.4602471 0,0.1811168 -0.15366,0.43195 -0.31506,0.5142886 -0.18768,0.095747 -0.32264,0.095942 -0.53226,7.695e-4 -0.21346,-0.096912 -0.24286,-0.1591988 -0.6371,-1.3497342 -0.17787,-0.5371094 -0.36665,-1.0629831 -0.41953,-1.1686081 -0.12605,-0.2517985 -0.45184,-0.5738633 -0.71651,-0.7083199 -0.37478,-0.1904012 -0.52914,-0.2119515 -1.52173,-0.2124519 l -0.91953,-4.61e-4 -0.1298,0.3027344 c -0.59306,1.383196 -1.82939,2.5138388 -3.22645,2.9506287 -0.61686,0.1928609 -0.93476,0.2400284 -1.62109,0.2405242 -0.70972,5.117e-4 -1.04095,-0.05067 -1.66016,-0.2565328 C 638.00408,4.7328202 636.75782,3.5800515 636.21912,2.2419 l -0.11078,-0.2751816 -0.88246,4.649e-4 c -0.95289,5e-4 -1.11239,0.023324 -1.48467,0.2124519 -0.26466,0.1344566 -0.59045,0.4565215 -0.7165,0.7083199 -0.0529,0.105625 -0.24167,0.6314988 -0.41953,1.1686081 -0.17786,0.5371093 -0.35551,1.0406276 -0.39478,1.1189296 -0.0479,0.095511 -0.12732,0.1694355 -0.24129,0.2246093 -0.21035,0.1018266 -0.35551,0.101802 -0.54864,-7.81e-5 z m 9.07529,-6.9697166 v -5.841114 l -1.57227,0.011036 c -1.55521,0.010917 -1.57359,0.011981 -1.6944,0.098158 -0.26709,0.1905203 -0.25281,-0.0637 -0.23912,4.2573715 0.0122,3.84088451 0.0136,3.90224856 0.096,4.2101939 0.40224,1.5020159 1.50554,2.617413 2.98005,3.0127204 0.18262,0.048959 0.35401,0.089856 0.38086,0.090882 0.0389,0.00148 0.0488,-1.1914027 0.0488,-5.8392476 z m 1.56483,5.7581026 c 1.47782,-0.3720808 2.58527,-1.4775522 3.00934,-3.0039517 l 0.0919,-0.33100542 0.0109,-3.90624968 0.0108,-3.9062497 -0.088,-0.1521836 c -0.17264,-0.2983789 -0.16407,-0.2970351 -1.89408,-0.2970351 h -1.53382 v 5.8398433 c 0,3.2119138 0.0142,5.8398433 0.0316,5.8398433 0.0174,0 0.17999,-0.037355 0.36133,-0.083011 z m 1.85389,-12.9149798 c -0.0414,-0.2205328 -0.20488,-0.5849496 -0.39001,-0.8691953 -0.7845,-1.2045517 -2.32933,-1.6531857 -3.66228,-1.0635587 -0.45678,0.202052 -0.97743,0.6666576 -1.26736,1.1309337 -0.16943,0.2713059 -0.36215,0.7373445 -0.36387,0.8798906 -7.8e-4,0.064488 0.1609,0.068359 2.85508,0.068359 h 2.85591 z"
       id="path22" />
  </g>
</svg>
