<?xml version="1.0" encoding="UTF-8" standalone="no"?>
<svg
   xmlns:dc="http://purl.org/dc/elements/1.1/"
   xmlns:cc="http://creativecommons.org/ns#"
   xmlns:rdf="http://www.w3.org/1999/02/22-rdf-syntax-ns#"
   xmlns:svg="http://www.w3.org/2000/svg"
   xmlns="http://www.w3.org/2000/svg"
   xmlns:sodipodi="http://sodipodi.sourceforge.net/DTD/sodipodi-0.dtd"
   xmlns:inkscape="http://www.inkscape.org/namespaces/inkscape"
   version="1.1"
   id="svg42"
   width="19.999998"
   height="19.999996"
   viewBox="0 0 19.999998 19.999996"
   sodipodi:docname="logout.svg"
   inkscape:version="1.0.1 (c497b03c, 2020-09-10)">
  <metadata
     id="metadata48">
    <rdf:RDF>
      <cc:Work
         rdf:about="">
        <dc:format>image/svg+xml</dc:format>
        <dc:type
           rdf:resource="http://purl.org/dc/dcmitype/StillImage" />
        <dc:title />
      </cc:Work>
    </rdf:RDF>
  </metadata>
  <defs
     id="defs46" />
  <sodipodi:namedview
     pagecolor="#ffffff"
     bordercolor="#666666"
     borderopacity="1"
     objecttolerance="10"
     gridtolerance="10"
     guidetolerance="10"
     inkscape:pageopacity="0"
     inkscape:pageshadow="2"
     inkscape:window-width="1266"
     inkscape:window-height="571"
     id="namedview44"
     showgrid="false"
     inkscape:zoom="9.7250015"
     inkscape:cx="9.9999992"
     inkscape:cy="9.9999984"
     inkscape:window-x="0"
     inkscape:window-y="23"
     inkscape:window-maximized="0"
     inkscape:current-layer="g50"
     inkscape:document-rotation="0" />
  <g
     inkscape:groupmode="layer"
     inkscape:label="Image"
     id="g50"
     transform="translate(0.16285064,-1.1024618)">
    <path
       style="fill:#2b2c34;stroke-width:0.0391549;fill-opacity:1"
       d="m 1.7974199,21.04426 c -0.91327653,-0.196839 -1.70327176,-0.99688 -1.8956994,-1.919804 -0.08609485,-0.41293 -0.08609485,-15.6295819 0,-16.0425115 C 0.05021465,2.3697345 0.56541247,1.7012008 1.212452,1.3811063 1.7960001,1.0924214 1.6215472,1.1024862 6.038258,1.102688 c 4.431873,2.026e-4 4.117882,-0.020597 4.390364,0.2908356 0.164369,0.1878658 0.202248,0.2903724 0.202248,0.5473166 0,0.2675581 -0.121871,0.5017109 -0.345908,0.6645978 L 10.115108,2.7289309 6.1223798,2.7485427 C 2.3203298,2.767218 2.1231184,2.7716518 1.9928502,2.8413843 1.8006568,2.9442654 1.6859195,3.0570223 1.5884143,3.2388395 l -0.08414,0.156895 V 11.1032 18.810666 l 0.08414,0.156895 c 0.097505,0.181817 0.2122425,0.294574 0.4044359,0.397455 0.1302682,0.06973 0.3274796,0.07417 4.1295296,0.09284 l 3.9927282,0.01961 0.169854,0.123493 c 0.224037,0.162887 0.345908,0.39704 0.345908,0.664598 0,0.256944 -0.03788,0.359451 -0.202248,0.547316 -0.272701,0.311683 0.04459,0.290933 -4.4099073,0.288399 -3.2412599,-0.0018 -4.0137265,-0.01228 -4.2212948,-0.05701 z M 13.744015,16.909456 c -0.441142,-0.141346 -0.684278,-0.59323 -0.556505,-1.034302 0.05876,-0.202828 0.133251,-0.282783 1.918217,-2.058853 1.021397,-1.016307 1.857086,-1.857184 1.857086,-1.868616 0,-0.01143 -2.212453,-0.02079 -4.916562,-0.02079 H 7.1296885 L 6.9575568,11.838645 C 6.7414389,11.72784 6.5840367,11.530009 6.5206443,11.289513 c -0.093536,-0.354858 0.091144,-0.74448 0.4369125,-0.921758 l 0.1721317,-0.08825 h 4.9165625 c 2.704109,0 4.916562,-0.0094 4.916562,-0.02079 0,-0.01143 -0.835689,-0.8523098 -1.857086,-1.8686168 C 13.320761,6.6140288 13.246266,6.5340737 13.18751,6.331246 12.984449,5.6302814 13.713626,5.0297702 14.360331,5.3653726 c 0.152615,0.079198 5.327026,5.2109534 5.409472,5.3648784 0.09835,0.183622 0.08703,0.593705 -0.02122,0.768368 -0.119657,0.193077 -5.240834,5.265906 -5.398905,5.347935 -0.154696,0.08028 -0.454316,0.111396 -0.605666,0.0629 z"
       id="path54" />
  </g>
</svg>
