<?xml version="1.0" encoding="UTF-8" standalone="no"?>
<svg
   xmlns:dc="http://purl.org/dc/elements/1.1/"
   xmlns:cc="http://creativecommons.org/ns#"
   xmlns:rdf="http://www.w3.org/1999/02/22-rdf-syntax-ns#"
   xmlns:svg="http://www.w3.org/2000/svg"
   xmlns="http://www.w3.org/2000/svg"
   xmlns:sodipodi="http://sodipodi.sourceforge.net/DTD/sodipodi-0.dtd"
   xmlns:inkscape="http://www.inkscape.org/namespaces/inkscape"
   version="1.1"
   id="svg10"
   width="20.000002"
   height="20.027071"
   viewBox="0 0 20.000002 20.027071"
   sodipodi:docname="user-icon.svg"
   inkscape:version="1.0.1 (c497b03c, 2020-09-10)">
  <metadata
     id="metadata16">
    <rdf:RDF>
      <cc:Work
         rdf:about="">
        <dc:format>image/svg+xml</dc:format>
        <dc:type
           rdf:resource="http://purl.org/dc/dcmitype/StillImage" />
        <dc:title />
      </cc:Work>
    </rdf:RDF>
  </metadata>
  <defs
     id="defs14" />
  <sodipodi:namedview
     pagecolor="#ffffff"
     bordercolor="#666666"
     borderopacity="1"
     objecttolerance="10"
     gridtolerance="10"
     guidetolerance="10"
     inkscape:pageopacity="0"
     inkscape:pageshadow="2"
     inkscape:window-width="1207"
     inkscape:window-height="571"
     id="namedview12"
     showgrid="false"
     inkscape:zoom="18.125466"
     inkscape:cx="10.000001"
     inkscape:cy="10.013535"
     inkscape:window-x="0"
     inkscape:window-y="23"
     inkscape:window-maximized="0"
     inkscape:current-layer="g18"
     inkscape:document-rotation="0" />
  <g
     inkscape:groupmode="layer"
     inkscape:label="Image"
     id="g18"
     transform="translate(2.04032,-0.19745135)">
    <path
       style="fill:#2b2c34;stroke-width:0.0391522;fill-opacity:1"
       d="M 7.2351386,20.211103 C 6.8367261,20.178339 5.9686678,20.030323 5.5255158,19.91959 1.8839288,19.009643 -0.98849412,16.067245 -1.8101634,12.405207 -1.9961327,11.576375 -2.0407074,11.147947 -2.0403175,10.193099 -2.0399259,9.2401663 -1.9954315,8.8134127 -1.8096654,7.9809915 -1.0501936,4.5777803 1.525163,1.7590899 4.857971,0.68336045 8.4574519,-0.47844299 12.431964,0.48174633 15.070517,3.1505758 c 1.545693,1.5634294 2.497494,3.4918552 2.818912,5.7113496 0.08393,0.5795558 0.09506,1.9699966 0.02037,2.5448906 -0.318774,2.453659 -1.48977,4.678254 -3.302553,6.274018 -1.522658,1.340371 -3.176651,2.115522 -5.1991612,2.436609 -0.5153718,0.08182 -1.6973987,0.132768 -2.1729452,0.09366 z m 1.7898655,-1.485328 c 1.6315239,-0.226093 3.0441699,-0.830197 4.3314009,-1.852279 l 0.326746,-0.259442 -0.02195,-0.352369 c -0.08299,-1.332411 -0.676046,-2.64136 -1.636642,-3.612271 -0.563592,-0.569643 -1.126276,-0.954141 -1.845655,-1.26119 l -0.3841668,-0.163971 -0.2422681,0.09619 c -0.604576,0.240042 -1.0938458,0.319332 -1.7972129,0.291253 -0.5461304,-0.0218 -0.9033641,-0.09612 -1.3807735,-0.287235 L 6.1260931,11.225021 5.7502824,11.382049 C 3.7801353,12.205248 2.3742072,14.159941 2.2543151,16.24257 l -0.021439,0.372411 0.411263,0.322044 c 1.5555394,1.218084 3.3187858,1.836473 5.2650259,1.846499 0.4163104,0.0021 0.8429563,-0.01994 1.1158367,-0.05775 z M 1.0281564,14.920723 c 0.075662,-0.338977 0.2982299,-0.954739 0.4900219,-1.355704 0.6143763,-1.28443 1.6632762,-2.40918 2.9080801,-3.118376 L 4.7835873,10.243064 4.5969094,9.9995049 C 3.7343743,8.874153 3.4663891,7.5423158 3.8294843,6.1855464 4.0121123,5.5031241 4.3959429,4.8473653 4.9234334,4.316579 5.531535,3.7046771 6.3051262,3.290837 7.1568342,3.1217986 c 0.3865392,-0.076716 1.2912506,-0.068855 1.6731776,0.01454 1.6729612,0.3652935 2.9508532,1.640898 3.3211752,3.3152322 0.09329,0.4217757 0.101316,1.2299386 0.01666,1.6762377 -0.139978,0.7379048 -0.40213,1.2885835 -0.957667,2.0116905 l -0.07914,0.103009 0.322877,0.181964 c 1.655465,0.932967 2.872615,2.497185 3.398994,4.368212 l 0.104416,0.371151 0.239629,-0.364935 c 0.862699,-1.313818 1.336826,-2.947696 1.336826,-4.606802 0,-4.3651836 -3.271007,-8.0159491 -7.6306965,-8.5166098 -0.5944896,-0.06827 -1.8592494,-0.028853 -2.4368179,0.075945 -0.8391288,0.152258 -1.5406185,0.386115 -2.3241461,0.7748052 -2.6436101,1.3114349 -4.41175397,3.866375 -4.72097856,6.8217402 -0.0646821,0.618188 -0.0264704,1.7345694 0.0791813,2.3133264 0.15532604,0.850874 0.42732866,1.676152 0.79076726,2.399253 0.17862431,0.355393 0.624165,1.08529 0.66247852,1.08529 0.0133877,0 0.0469536,-0.101306 0.0745903,-0.225125 z M 8.3383542,10.170152 C 8.9643997,10.083228 9.6255823,9.7342631 10.054094,9.2646019 10.356802,8.9328261 10.525285,8.6495664 10.672503,8.2249134 10.779703,7.9156912 10.791299,7.83462 10.794187,7.3741431 10.797934,6.7770503 10.742534,6.527133 10.494773,6.0233934 10.277969,5.5825952 9.7640227,5.053626 9.3397111,4.83457 8.5301415,4.4166187 7.7778706,4.3597944 6.9678714,4.6554073 6.4636784,4.8394151 6.0706008,5.1232514 5.7238,5.5537358 5.0129583,6.4361054 4.9053968,7.6587719 5.4465466,8.7053167 c 0.20642,0.3992018 0.7459792,0.9293581 1.1621573,1.1419051 0.6292066,0.3213422 1.1034208,0.4098792 1.7296503,0.3229302 z"
       id="path22" />
  </g>
</svg>
